<?xml version="1.0" encoding="UTF-8"?>
<svg id="Capa_2" data-name="Capa 2" xmlns="http://www.w3.org/2000/svg" viewBox="0 0 476.8 113.28">
  <defs>
    <style>
      .cls-1 {
        fill: #f6f5bb;
      }

      .cls-2 {
        fill: #2b361d;
      }
    </style>
  </defs>
  <g id="Layer_1" data-name="Layer 1">
    <g>
      <g>
        <path class="cls-2" d="M111.82,35.68v32.77c0,2.79.06,5.17.17,7.14.11,1.97.37,4,.78,6.09.41,2.09,1.02,3.99,1.84,5.7,1.55,3.28,3.77,5.73,6.65,7.33s6.09,2.41,9.61,2.41c3.09,0,6.13-.78,9.14-2.32,3.01-1.55,5.22-3.72,6.63-6.5,1.85-3.63,2.77-10.18,2.77-19.62v-35.15c0-1.51-.23-2.53-.69-3.04-.46-.52-1.44-1.16-2.94-1.94-.98-.54-1.69-1.04-2.13-1.52-.44-.48-.67-1.18-.67-2.1,0-1.59.58-2.61,1.75-3.06,1.17-.45,2.69-.68,4.58-.68h9.31c1.9,0,3.43.23,4.59.68,1.16.45,1.74,1.47,1.74,3.06,0,.92-.22,1.62-.67,2.1-.44.48-1.16.99-2.13,1.52-1.5.78-2.48,1.42-2.94,1.94-.46.52-.69,1.53-.69,3.04v33.46c0,6.4-.38,11.89-1.12,16.45-.75,4.57-2.48,8.57-5.18,12-1.95,2.45-4.41,4.47-7.36,6.05s-6.07,2.7-9.35,3.36c-3.28.66-6.56,1-9.86,1-4.5,0-9.03-.69-13.58-2.06-4.56-1.37-8.32-3.56-11.28-6.55-3.38-3.43-5.63-7.51-6.76-12.25s-1.69-10.24-1.69-16.54v-32.88c0-1.97-.11-3.4-.34-4.28-.23-.88-.76-1.53-1.6-1.95l-1.18-.69c-.99-.68-1.67-1.23-2.03-1.65s-.54-1.07-.54-1.98c0-2.56,1.74-3.85,5.23-3.85h20.68c3.85,0,5.78,1.28,5.78,3.85,0,1.61-.85,2.74-2.56,3.4-.94.42-1.67.82-2.18,1.19-.51.37-.88.79-1.09,1.26-.21.47-.35,1.08-.43,1.84-.08.76-.17,1.74-.27,2.96Z"/>
        <path class="cls-2" d="M216.77,69.91l16.6-42.84c.68-1.73,1.24-2.99,1.69-3.76s1.06-1.32,1.84-1.65c.78-.32,1.97-.48,3.56-.48h19.92c1.05,0,1.91.36,2.6,1.07.69.71,1.03,1.71,1.03,3s-.34,2.17-1.02,2.68c-.68.52-1.73,1.02-3.16,1.52-1.32.41-2.17,1.01-2.55,1.81-.38.8-.56,2.04-.56,3.72v54.77c0,1.96.12,3.37.37,4.25s.77,1.54,1.57,1.98l1.18.69c.89.55,1.54,1.07,1.95,1.54.41.47.61,1.17.61,2.09,0,2.57-1.74,3.85-5.23,3.85h-20.37c-3.49,0-5.23-1.28-5.23-3.85,0-.92.19-1.61.58-2.05.38-.44,1.05-.97,1.99-1.58l1.18-.69c.84-.46,1.37-1.13,1.6-1.99.23-.87.34-2.28.34-4.23v-49.21l-17.36,45.58c-.89,2.25-1.53,3.75-1.92,4.5-.39.75-1.03,1.37-1.92,1.88-.89.51-2.21.76-3.97.76s-3.07-.1-3.92-.29c-.85-.19-1.59-.62-2.21-1.29-.62-.66-1.25-1.72-1.9-3.18l-18.85-46.72v48.18c.12,1.53.34,2.78.65,3.74.31.87.72,1.46,1.22,1.79.5.32,1.44.79,2.84,1.4.96.41,1.65.87,2.07,1.38.42.52.63,1.3.63,2.35,0,1.48-.62,2.43-1.87,2.86-1.25.43-3.06.65-5.43.65h-9.31c-2.35,0-4.16-.22-5.41-.65-1.26-.43-1.88-1.39-1.88-2.86,0-1.05.21-1.84.63-2.35.42-.52,1.11-.98,2.07-1.38,1.31-.55,2.23-1,2.77-1.34.54-.34.97-.95,1.28-1.84.31-.96.53-2.2.65-3.74v-54.41c0-.98-.1-1.77-.31-2.38-.47-2.09-1.87-3.49-4.18-4.21-1.39-.46-2.42-.94-3.09-1.43-.66-.49-.99-1.33-.99-2.53,0-1.64.54-2.69,1.62-3.15,1.08-.46,2.58-.69,4.5-.69h20.86c1.24,0,2.25.2,3.03.6.78.4,1.41.93,1.87,1.59.46.66.89,1.55,1.28,2.64.39,1.1.76,2.17,1.11,3.22l14.98,40.68Z"/>
        <path class="cls-2" d="M278.34,104.15h-5.88c-2.68,0-4.64-.24-5.87-.72-1.23-.48-1.84-1.52-1.84-3.13,0-1.11.75-2.24,2.25-3.4,1.06-.72,1.79-1.28,2.17-1.69.38-.41.73-1.05,1.05-1.94l3.84-12.7c.92-3.08,1.94-6.18,3.06-9.29,1.12-3.11,2.38-6.43,3.8-9.98,1.42-3.54,2.7-6.66,3.83-9.37,1.13-2.7,2.61-6.23,4.42-10.59,2.58-6.24,5.22-11.95,7.92-17.13.89-1.73,1.86-2.83,2.92-3.28,1.05-.45,2.69-.68,4.9-.68,2.95,0,4.99.44,6.12,1.31,1.13.88,2.27,2.74,3.43,5.6l21.94,54.41,3.77,11.79c.38,1,.75,1.68,1.11,2.06.36.38,1.06.9,2.11,1.56,1.34.85,2.01,1.95,2.01,3.29,0,2.57-1.81,3.85-5.44,3.85h-18.12c-1.9,0-3.46-.21-4.69-.64-1.23-.42-1.84-1.42-1.84-2.99,0-.83.2-1.48.6-1.94.4-.46,1.01-.93,1.82-1.41.81-.48,1.38-.86,1.71-1.15.33-.29.5-.71.5-1.29s-.24-1.75-.73-3.58c-.49-1.84-1.11-4-1.87-6.5-.76-2.5-1.32-4.35-1.69-5.55l-.55-1.83h-29.99c-.3,1.09-.82,2.79-1.58,5.09-.76,2.31-1.36,4.31-1.8,6.01s-.67,3.06-.67,4.1c0,1.11.23,1.95.68,2.53.45.58,1.15,1.16,2.09,1.74.94.58,1.64,1.12,2.11,1.62.46.5.69,1.22.69,2.16,0,1.49-.67,2.47-2,2.93-1.33.46-3.42.69-6.26.69ZM288.1,67.98h24l-.55-1.8-11.45-28.34-12,30.14Z"/>
        <path class="cls-2" d="M394.54,69.91l16.6-42.84c.68-1.73,1.24-2.99,1.69-3.76.44-.78,1.06-1.32,1.84-1.65.78-.32,1.97-.48,3.56-.48h19.92c1.05,0,1.91.36,2.6,1.07.69.71,1.03,1.71,1.03,3s-.34,2.17-1.02,2.68-1.73,1.02-3.16,1.52c-1.32.41-2.17,1.01-2.55,1.81s-.56,2.04-.56,3.72v54.77c0,1.96.12,3.37.37,4.25s.77,1.54,1.57,1.98l1.18.69c.89.55,1.54,1.07,1.95,1.54s.62,1.17.62,2.09c0,2.57-1.74,3.85-5.23,3.85h-20.37c-3.49,0-5.23-1.28-5.23-3.85,0-.92.19-1.61.58-2.05.38-.44,1.05-.97,1.99-1.58l1.18-.69c.84-.46,1.37-1.13,1.6-1.99s.34-2.28.34-4.23v-49.21l-17.36,45.58c-.89,2.25-1.53,3.75-1.92,4.5-.39.75-1.03,1.37-1.92,1.88s-2.21.76-3.97.76-3.07-.1-3.92-.29c-.85-.19-1.59-.62-2.21-1.29-.62-.66-1.25-1.72-1.89-3.18l-18.85-46.72v48.18c.12,1.53.34,2.78.65,3.74.31.87.72,1.46,1.22,1.79.5.32,1.44.79,2.84,1.4.96.41,1.65.87,2.07,1.38.42.52.63,1.3.63,2.35,0,1.48-.62,2.43-1.87,2.86-1.25.43-3.05.65-5.43.65h-9.31c-2.35,0-4.16-.22-5.41-.65-1.26-.43-1.88-1.39-1.88-2.86,0-1.05.21-1.84.63-2.35.42-.52,1.11-.98,2.07-1.38,1.31-.55,2.23-1,2.77-1.34.54-.34.97-.95,1.28-1.84.31-.96.53-2.2.65-3.74v-54.41c0-.98-.1-1.77-.31-2.38-.47-2.09-1.87-3.49-4.18-4.21-1.39-.46-2.42-.94-3.09-1.43s-.99-1.33-.99-2.53c0-1.64.54-2.69,1.62-3.15,1.08-.46,2.58-.69,4.5-.69h20.86c1.24,0,2.25.2,3.03.6.78.4,1.41.93,1.87,1.59.46.66.89,1.55,1.28,2.64.39,1.1.76,2.17,1.11,3.22l14.98,40.68Z"/>
        <path class="cls-2" d="M451.64,89.76v-54.19c0-1.97-.12-3.4-.35-4.28s-.75-1.53-1.56-1.95l-1.18-.69c-.98-.65-1.65-1.19-2.03-1.62-.38-.43-.56-1.1-.56-2.01,0-2.56,1.75-3.85,5.25-3.85h20.32c3.5,0,5.25,1.28,5.25,3.85,0,.9-.19,1.58-.58,2.02-.38.44-1.05.98-1.99,1.61l-1.2.69c-.82.42-1.34,1.08-1.57,1.95-.23.88-.34,2.3-.34,4.28v54.19c0,1.96.11,3.37.34,4.23.23.87.75,1.53,1.57,1.99l1.2.69c.89.55,1.54,1.07,1.95,1.54s.61,1.17.61,2.09c0,2.57-1.75,3.85-5.25,3.85h-20.32c-3.5,0-5.25-1.28-5.25-3.85,0-.92.2-1.61.59-2.06.39-.45,1.06-.97,2-1.56l1.18-.69c.82-.44,1.34-1.1,1.57-1.98s.34-2.29.34-4.25Z"/>
      </g>
      <g>
        <path d="M23.62,66.21c-.62-.61-4.38-.22-5.53-.32-5.3-.47-13.52-5.31-16.49-9.66-3.35-4.91-.67-6.7,1-11.24C7.97,30.36,3.36,7.49,22.44,1.4c13.35-4.26,23.54,1.8,33.01,10.21,6.17,5.48,13.18,11.69,18.88,17.57,2.3,2.37,2.51,3.63,2.2,6.81-.68,6.93-3.31,11.16-9.29,14.71-.78.46-3.67,1.52-3.74,2.24.42,1.83,2.88,2.27,4.36,3.16,3.59,2.15,6.39,3.72,2.82,8-1.66,1.99-3.5,1.56-5.02,3.26.04,6.43.82,12.6-.85,18.92-.33,1.26-1.8,4.29-1.81,5.15-.03,2.22,3.97,5.16,5.35,6.8,5.67,6.76.47,13.97-8,13.02-2.24-.25-5.39-2.02-7.09-1.99-2.31.04-3.84,2.28-5.95,3.13-2.9,1.17-6.32,1.36-8.9-.56-2.77-2.07-3.29-4.14-2.33-7.43.66-2.25,3.31-6.03,2.6-8.24-.17-.52-2.23-2.59-2.8-3.39-2.87-4.06-3.98-8.65-5.55-13.27-.64-.89-1.85-.8-2.72-1.17-3.41-1.46-4.84-4.27-4.4-7.92.13-1.11,1.34-3.3.43-4.2ZM32.73,2.3c-.97-.95-6.85.01-8.27.58-.77.31-.86.56-.78,1.41,8.21,1.84,2.24,5.54.05,8.91-4.19,6.46.65,14.02-9,16.54-2.92.76-5.23-.03-6.29,3.3-1.15,3.64-1.51,7.63-2.8,11.35-.88,2.54-5.04,8.73.51,8.85,1.66.03,2.72-1.84,3.87-2.74,3.55-2.77,7.41-3.72,11.93-3.31,5.25.48,7.99,3.57,13.47.64,6.32-3.38,10.79-8.74,18.2-11.32,1.21-.42,6.45-1.36,6.78-1.85.45-1.98-.96-3.25-.48-5.54.56-2.68,5.36-3,2.92-6.59-1.08-1.58-4.97-5.96-6.53-6.91-4.83-2.92-7.96.3-11.72-1.02-2.66-.93-11.64-6.69-12.01-9.48-.11-.81.99-2.01.15-2.83ZM37.05,8.06c1.33,1.37,6.94,5,8.74,5.37,1.65.33,4.73-.85,3.67-2.59-.41-.67-2.67-2.49-3.42-3.04-1.82-1.34-7.01-4.31-9.2-4.24-2.9.1-.97,3.31.2,4.51ZM20.49,5.13c-5.46,1.12-9.34,11.36-10.22,16.11-.19,1.04-1.12,6.33-.4,6.82,3.17.52,7.41-.13,8.28-3.67,1.1-4.47.02-7.9,3.46-11.99.98-1.17,3.72-2.84,3.89-4.14.3-2.21-3.07-3.52-5.01-3.13ZM65.26,26.93c-2.6.56-3.75,7.22.46,7.41,1.24.06,5.14-.35,6.23-.82.58-.25,1.04-.67,1.45-1.13-2.29-1.52-4.9-6.16-8.14-5.47ZM66.37,37.41c-.62.67,3.76,3.41,4.62,3.55,2.44.38,2.83-3.78,1.18-4.27-1.51-.45-4.24.48-5.81.72ZM54.99,38.76c-.16.17-.33.58-.29.79.13.61,4.16,2,5.14,2.63,2.24,1.45,4.57,5.63,7.06,5.38,1.48-.15,2.28-1.43,2.2-2.84-.13-2.44-7.62-7.21-9.89-7.33-1.02-.05-3.55.67-4.23,1.37ZM50.53,41.54c-.15.5-.02.97.17,1.44.23.56,4.26,6.7,4.79,7.34.58.7,2.23,2.19,3.16,2.16,1.05-.03,3.51-1.23,3.77-2.41.06-.63-3.06-4.38-3.73-4.96-.78-.68-4.8-3.53-5.58-3.73-.89-.23-1.74-.2-2.58.17ZM44.92,98.86c3.73,3.73,9.51,9.21,14.63,10.86,7.53,2.43,10.12-4.19,6.41-9.92-2.34-3.62-7.41-6.79-9.7-10.72,1.25-2.54,2.82-.24,4.25.69,1.2-.28,2.36-8.54,2.48-9.88.57-6.45.05-9.79-2.22-15.77-2.15-5.68-7.24-14.06-11.57-18.37-1.7-1.69-2.97-2.22-5.3-1.1-1.85.9-6.12,3.75-7.91,5.03-5.72,4.06-4.69,6.11-6.58,11.99-1.06,3.31-3.15,6.12-3.4,9.74-.51,7.67,4.81,5.1,8.47,1.68.71-.66,3.01-3.99,4-3.32.97,1.79-1.63,2.99-2.69,4.36-6.33,8.23,3.43,19.04,9.11,24.72ZM27.79,51.98c1.91-1.37-3.37-2.86-4.2-3.06-5.14-1.27-7.87.75-12.08,3.18l-.21.58c0,.29.1.48.33.66,3.02,2.25,12.49-.93,16.16-1.35ZM27.26,53.64c-2.56.67-3.18,4.75-3.83,6.75-.37,1.13-1.54,2.13-.76,3.3,2.79,2.44,3.92-2.33,4.66-4.33.36-.98,1.57-4.09,1.57-4.89,0-.28,0-.6-.26-.78-.45-.2-.92-.17-1.38-.05ZM13,56.93c-1.52-1.02-2.87-.86-4.51-1.08-.71-.09-3-.96-3.27-.07.99,4.2,6.73,7.46,7.78,1.14ZM60.13,55.89c1.66,2.8,2.56,11.28,7.73,8.52,1.02-.55,2.23-2.36,2.15-3.5-.1-1.46-2.91-3.07-4.16-3.6-.81-.34-5.36-1.89-5.72-1.41ZM22.12,55.89c-1.54.04-3.13-.26-4.51.55-2.24,1.31-3.6,7.07-.37,6.58,2.61-.39,2.87-3.23,3.71-5.08.17-.37,1.37-1.88,1.17-2.05ZM41.31,99.55c-.8.22-2.89,5.91-3,6.84-.33,2.83,1.95,5.9,5.04,5.72.95-.05,5.03-1.66,5.83-2.21,1.17-.81,1.42-1.73.76-3.03-.45-.89-6.08-6.11-7.12-6.84-.46-.32-.88-.65-1.51-.48Z"/>
        <path class="cls-1" d="M44.92,98.86c-5.67-5.68-15.44-16.5-9.11-24.72,1.05-1.37,3.66-2.57,2.69-4.36-.99-.67-3.29,2.65-4,3.32-3.67,3.42-8.99,5.99-8.47-1.68.24-3.62,2.33-6.43,3.4-9.74,1.89-5.89.85-7.93,6.58-11.99,1.8-1.28,6.06-4.13,7.91-5.03,2.32-1.12,3.6-.59,5.3,1.1,4.33,4.31,9.41,12.69,11.57,18.37,2.27,5.98,2.79,9.33,2.22,15.77-.12,1.35-1.28,9.61-2.48,9.88-1.43-.92-3-3.22-4.25-.69,2.3,3.93,7.36,7.1,9.7,10.72,3.71,5.73,1.12,12.35-6.41,9.92-5.12-1.65-10.9-7.12-14.63-10.86Z"/>
        <path class="cls-2" d="M32.73,2.3c.84.83-.26,2.02-.15,2.83.37,2.78,9.34,8.54,12.01,9.48,3.76,1.32,6.89-1.9,11.72,1.02,1.56.94,5.46,5.32,6.53,6.91,2.44,3.59-2.35,3.9-2.92,6.59-.48,2.3.93,3.56.48,5.54-.32.49-5.57,1.43-6.78,1.85-7.41,2.58-11.88,7.94-18.2,11.32-5.48,2.93-8.23-.16-13.47-.64-4.52-.41-8.39.54-11.93,3.31-1.14.89-2.21,2.77-3.87,2.74-5.55-.12-1.39-6.31-.51-8.85,1.3-3.72,1.65-7.71,2.8-11.35,1.05-3.32,3.37-2.54,6.29-3.3,9.65-2.51,4.8-10.07,9-16.54,2.18-3.37,8.16-7.07-.05-8.91-.08-.85.01-1.1.78-1.41,1.41-.57,7.3-1.53,8.27-.58ZM22.21,38.09c1.28,1.12,3.8,1.76,5.48,1.6,4.45-.43,8.43-6.27,13.23-7.75,2.35-.72,4.56-.32,6.33-2.48,3.79-4.61-2.41-9.39-7.01-8.71-4.53,2.26-15.42,4.24-18.37,8.07-1.83,2.38-2.05,7.18.34,9.27Z"/>
        <path class="cls-1" d="M20.49,5.13c1.94-.4,5.31.92,5.01,3.13-.17,1.3-2.91,2.97-3.89,4.14-3.44,4.09-2.36,7.52-3.46,11.99-.87,3.55-5.11,4.2-8.28,3.67-.72-.49.21-5.78.4-6.82.87-4.74,4.76-14.99,10.22-16.11Z"/>
        <path class="cls-1" d="M41.31,99.55c.62-.17,1.04.16,1.51.48,1.04.72,6.67,5.94,7.12,6.84.65,1.29.4,2.21-.76,3.03-.8.56-4.88,2.16-5.83,2.21-3.08.18-5.36-2.89-5.04-5.72.11-.92,2.2-6.61,3-6.84Z"/>
        <path class="cls-1" d="M37.05,8.06c-1.17-1.2-3.1-4.41-.2-4.51,2.19-.08,7.38,2.89,9.2,4.24.75.55,3.01,2.37,3.42,3.04,1.05,1.74-2.03,2.93-3.67,2.59-1.81-.36-7.41-3.99-8.74-5.37Z"/>
        <path class="cls-2" d="M54.99,38.76c.68-.7,3.21-1.42,4.23-1.37,2.27.12,9.75,4.89,9.89,7.33.08,1.41-.72,2.7-2.2,2.84-2.49.25-4.82-3.94-7.06-5.38-.97-.63-5.01-2.01-5.14-2.63-.05-.22.12-.63.29-.79Z"/>
        <path class="cls-2" d="M50.53,41.54c.84-.36,1.69-.39,2.58-.17.78.2,4.8,3.06,5.58,3.73.67.58,3.78,4.33,3.73,4.96-.26,1.19-2.72,2.38-3.77,2.41-.94.03-2.58-1.46-3.16-2.16-.53-.64-4.56-6.78-4.79-7.34-.19-.47-.32-.93-.17-1.44Z"/>
        <path class="cls-1" d="M27.79,51.98c-3.66.43-13.13,3.61-16.16,1.35-.24-.18-.33-.37-.33-.66l.21-.58c4.21-2.44,6.94-4.45,12.08-3.18.82.2,6.11,1.69,4.2,3.06Z"/>
        <path class="cls-1" d="M60.13,55.89c.36-.47,4.91,1.07,5.72,1.41,1.25.53,4.06,2.14,4.16,3.6.08,1.15-1.13,2.96-2.15,3.5-5.18,2.76-6.07-5.72-7.73-8.52Z"/>
        <path class="cls-1" d="M65.26,26.93c3.23-.69,5.85,3.95,8.14,5.47-.41.46-.87.88-1.45,1.13-1.09.47-4.99.87-6.23.82-4.2-.2-3.06-6.86-.46-7.41Z"/>
        <path class="cls-2" d="M27.26,53.64c.46-.12.94-.14,1.38.05.26.18.26.49.26.78,0,.8-1.21,3.91-1.57,4.89-.74,2-1.87,6.77-4.66,4.33-.77-1.17.4-2.17.76-3.3.65-2,1.27-6.08,3.83-6.75Z"/>
        <path class="cls-2" d="M22.12,55.89c.2.17-1,1.68-1.17,2.05-.84,1.85-1.1,4.69-3.71,5.08-3.24.49-1.88-5.28.37-6.58,1.38-.81,2.98-.51,4.51-.55Z"/>
        <path class="cls-2" d="M13,56.93c-1.04,6.31-6.79,3.06-7.78-1.14.27-.9,2.56-.03,3.27.07,1.64.22,2.99.06,4.51,1.08Z"/>
        <path class="cls-2" d="M66.37,37.41c1.57-.24,4.3-1.17,5.81-.72,1.65.49,1.25,4.65-1.18,4.27-.87-.14-5.25-2.88-4.62-3.55Z"/>
        <path d="M22.21,38.09c-2.39-2.09-2.18-6.89-.34-9.27,2.95-3.83,13.84-5.81,18.37-8.07,4.6-.68,10.8,4.09,7.01,8.71-1.78,2.16-3.98,1.76-6.33,2.48-4.8,1.48-8.78,7.31-13.23,7.75-1.68.16-4.2-.49-5.48-1.6ZM41.33,22.85c-5.51.03-18.33,4.66-18.17,11.34.11,4.5,5.91,4.44,8.73,2.45,3.43-2.42,4.04-4.79,8.93-6.34,2.03-.65,5.5-.51,5.77-3.31.26-2.75-2.85-4.15-5.25-4.13Z"/>
        <path class="cls-1" d="M41.33,22.85c2.4-.01,5.51,1.38,5.25,4.13-.27,2.8-3.74,2.67-5.77,3.31-4.89,1.55-5.5,3.93-8.93,6.34-2.82,1.99-8.62,2.06-8.73-2.45-.16-6.68,12.66-11.31,18.17-11.34Z"/>
      </g>
    </g>
  </g>
</svg>